<svg xmlns="http://www.w3.org/2000/svg" viewBox="0 0 512 512" width="512" height="512">
  <defs>
    <linearGradient id="grad" x1="0%" y1="0%" x2="100%" y2="100%">
      <stop offset="0%" style="stop-color:#3b82f6"/>
      <stop offset="100%" style="stop-color:#8b5cf6"/>
    </linearGradient>
  </defs>
  <rect width="512" height="512" rx="96" fill="url(#grad)"/>
  <g fill="white">
    <!-- C letter stylized with chopsticks -->
    <path d="M256 128c-70.7 0-128 57.3-128 128s57.3 128 128 128c61.4 0 112.5-43.1 124.8-100h-60.2c-11.5 28.6-39.2 48-71.6 48-39.8 0-72-32.2-72-72s32.2-72 72-72c21.7 0 41.4 9.6 54.8 24.4l44.1-50.9c-23.7-26.1-57.5-42.5-95.8-42.5z" opacity="0.3"/>
    <!-- ChinaConnect text -->
    <text x="256" y="320" text-anchor="middle" font-family="Arial, sans-serif" font-weight="bold" font-size="140" fill="white">CC</text>
    <!-- Chopsticks accent -->
    <rect x="140" y="160" width="16" height="200" rx="8" transform="rotate(-20 148 260)" fill="white" opacity="0.9"/>
    <rect x="180" y="160" width="16" height="200" rx="8" transform="rotate(-10 188 260)" fill="white" opacity="0.7"/>
  </g>
</svg>
