<svg xmlns="http://www.w3.org/2000/svg" viewBox="0 0 64 64" width="64" height="64">
  <defs>
    <linearGradient id="bg" x1="0%" y1="0%" x2="100%" y2="100%">
      <stop offset="0%" style="stop-color:#1e3a5f"/>
      <stop offset="100%" style="stop-color:#0d2137"/>
    </linearGradient>
    <linearGradient id="gold" x1="0%" y1="0%" x2="100%" y2="100%">
      <stop offset="0%" style="stop-color:#f0c040"/>
      <stop offset="100%" style="stop-color:#d4a017"/>
    </linearGradient>
  </defs>
  <circle cx="32" cy="32" r="32" fill="url(#bg)"/>
  <!-- Simplified wall -->
  <g fill="url(#gold)">
    <path d="M8 40 Q16 36 24 38 Q32 36 40 38 Q48 36 56 40 L56 48 Q48 44 40 46 Q32 44 24 46 Q16 44 8 48 Z"/>
    <rect x="16" y="32" width="6" height="8" rx="1"/>
    <path d="M15 32 L19 28 L23 32 Z"/>
    <rect x="40" y="30" width="7" height="10" rx="1"/>
    <path d="M39 30 L43.5 25 L48 30 Z"/>
  </g>
  <!-- Connection dots -->
  <circle cx="14" cy="22" r="3" fill="#fff" opacity="0.8"/>
  <circle cx="32" cy="16" r="4" fill="#fff" opacity="0.9"/>
  <circle cx="50" cy="22" r="3" fill="#fff" opacity="0.8"/>
  <line x1="14" y1="22" x2="32" y2="16" stroke="#fff" stroke-width="1.5" opacity="0.5"/>
  <line x1="32" y1="16" x2="50" y2="22" stroke="#fff" stroke-width="1.5" opacity="0.5"/>
  <!-- C -->
  <circle cx="32" cy="16" r="8" fill="#e74c3c"/>
  <text x="32" y="20" text-anchor="middle" font-family="Georgia, serif" font-size="12" font-weight="bold" fill="white">C</text>
</svg>
