<svg xmlns="http://www.w3.org/2000/svg" viewBox="0 0 512 512" width="512" height="512">
  <defs>
    <linearGradient id="bgGrad" x1="0%" y1="0%" x2="100%" y2="100%">
      <stop offset="0%" stop-color="#1e3a8a"/>
      <stop offset="50%" stop-color="#0e2a6b"/>
      <stop offset="100%" stop-color="#0a1f4d"/>
    </linearGradient>
    <linearGradient id="ccGrad" x1="0%" y1="0%" x2="100%" y2="100%">
      <stop offset="0%" stop-color="#fde68a"/>
      <stop offset="50%" stop-color="#f59e0b"/>
      <stop offset="100%" stop-color="#dc2626"/>
    </linearGradient>
    <linearGradient id="cloudGrad" x1="0%" y1="0%" x2="0%" y2="100%">
      <stop offset="0%" stop-color="#ffffff"/>
      <stop offset="100%" stop-color="#e0e7ff"/>
    </linearGradient>
    <filter id="glow" x="-20%" y="-20%" width="140%" height="140%">
      <feGaussianBlur stdDeviation="6" result="coloredBlur"/>
      <feMerge>
        <feMergeNode in="coloredBlur"/>
        <feMergeNode in="SourceGraphic"/>
      </feMerge>
    </filter>
  </defs>

  <rect x="16" y="16" width="480" height="480" rx="112" fill="url(#bgGrad)"/>

  <g opacity="0.08" stroke="#ffffff" stroke-width="2" fill="none">
    <path d="M 60 100 Q 150 80 220 110 T 380 100 T 460 120"/>
    <path d="M 50 140 Q 140 120 210 150 T 370 140 T 460 160"/>
    <path d="M 60 380 Q 150 360 220 390 T 380 380 T 460 400"/>
    <path d="M 50 420 Q 140 400 210 430 T 370 420 T 460 440"/>
  </g>

  <g opacity="0.18" stroke="#a5b4fc" stroke-width="2" fill="none">
    <circle cx="256" cy="220" r="120"/>
    <ellipse cx="256" cy="220" rx="120" ry="60"/>
    <ellipse cx="256" cy="220" rx="60" ry="120"/>
    <line x1="136" y1="220" x2="376" y2="220"/>
    <line x1="256" y1="100" x2="256" y2="340"/>
  </g>

  <g transform="translate(256,220)" filter="url(#glow)">
    <path d="M 90 -110 A 140 140 0 1 0 90 110 L 56 86 A 102 102 0 1 1 56 -86 Z" fill="url(#ccGrad)"/>
  </g>

  <g transform="translate(256,220)">
    <path d="M -42 0 Q -54 -18 -34 -22 Q -22 -34 -10 -22 Q 0 -36 12 -22 Q 30 -34 26 -10 Q 42 -2 30 10 Q 38 28 16 26 Q 4 36 -10 24 Q -22 36 -32 22 Q -54 18 -42 0 Z" fill="url(#cloudGrad)"/>
    <path d="M -20 -6 Q -10 -14 0 -6 Q 12 -14 18 -2" fill="none" stroke="#1e3a8a" stroke-width="1.5" opacity="0.4"/>
    <circle cx="-14" cy="6" r="2" fill="#1e3a8a" opacity="0.4"/>
    <circle cx="10" cy="8" r="2" fill="#1e3a8a" opacity="0.4"/>
  </g>

  <g transform="translate(256,400)">
    <text text-anchor="middle" font-family="Inter, Helvetica Neue, Arial, sans-serif" font-size="64" font-weight="800" letter-spacing="-2">
      <tspan fill="#ffffff">China</tspan><tspan fill="#fbbf24">Connect</tspan>
    </text>
    <text y="40" text-anchor="middle" font-family="Inter, sans-serif" font-size="18" font-weight="500" fill="#a5b4fc" letter-spacing="8">
      YOUR AI GUIDE TO CHINA
    </text>
  </g>

  <g fill="#fbbf24">
    <circle cx="40" cy="40" r="6"/>
    <circle cx="472" cy="40" r="6"/>
    <circle cx="40" cy="472" r="6"/>
    <circle cx="472" cy="472" r="6"/>
  </g>
</svg>
